# AST/ASF file generated using VICON BodyLanguage
# -----------------------------------------------
:version 1.10
:name VICON
:units
  mass 1.0
  length 0.45
  angle deg
:documentation
   .ast/.asf automatically generated from VICON data using
   VICON BodyBuilder and BodyLanguage model FoxedUp or BRILLIANT.MOD
:root
   order TX TY TZ RX RY RZ
   axis XYZ
   position 0 0 0  
   orientation 0 0 0 
:bonedata
  begin
     id 1 
     name lhipjoint
     direction 0.561001 -0.76473 0.316963 
     length 2.4722 
     axis 0 0 0  XYZ
  end
  begin
     id 2 
     name lfemur
     direction 0.34202 -0.939693 0  
     length 7.59403  
     axis 0 0 20  XYZ
    dof rx ry rz
    limits (-160.0 20.0)
           (-70.0 70.0)
           (-60.0 70.0)
  end
  begin
     id 3 
     name ltibia
     direction 0.34202 -0.939693 0   
     length 7.89655   
     axis 0 0 20   XYZ
    dof rx
    limits (-10.0 170.0)
  end
  begin
     id 4 
     name lfoot
     direction 0.061296 -0.168409 0.98381   
     length 2.73287   
     axis -90 7.62852e-016 20   XYZ
    dof rx rz
    limits (-45.0 90.0)
           (-70.0 20.0)
  end
  begin
     id 5 
     name ltoes
     direction 1.53547e-011 -4.21984e-011 1   
     length 1.37057   
     axis -90 7.62852e-016 20   XYZ
    dof rx
    limits (-90.0 20.0)
  end
  begin
     id 6 
     name rhipjoint
     direction -0.559611 -0.765599 0.317323   
     length 2.46939  
     axis 0 0 0  XYZ 
  end
  begin
     id 7 
     name rfemur
     direction -0.34202 -0.939693 0   
     length 7.53712   
     axis 0 0 -20   XYZ
    dof rx ry rz
    limits (-160.0 20.0)
           (-70.0 70.0)
           (-70.0 60.0)
  end
  begin
     id 8 
     name rtibia
     direction -0.34202 -0.939693 0   
     length 8.12549   
     axis 0 0 -20   XYZ
    dof rx
    limits (-10.0 170.0)
 end
 begin
     id 9 
     name rfoot
     direction -0.066984 -0.184037 0.980634   
     length 2.67541  
     axis -90 -7.62852e-016 -20   XYZ
    dof rx rz
    limits (-45.0 90.0)
           (-20.0 70.0)
  end
  begin
     id 10 
     name rtoes
     direction -1.53549e-011 -4.21786e-011 1   
     length 1.34085   
     axis -90 -7.62852e-016 -20   XYZ
    dof rx
    limits (-90.0 20.0)
  end
  begin
     id 11 
     name lowerback
     direction -0.0522728 0.992594 -0.109658   
     length 2.05633   
     axis 0 0 0   XYZ
    dof rx ry rz
    limits (-20.0 45.0)
           (-30.0 30.0)
           (-30.0 30.0)
  end
  begin
     id 12 
     name upperback
     direction 0.00589338 0.999977 0.00335704   
     length 2.05845   
     axis 0 0 0   XYZ
    dof rx ry rz
    limits (-20.0 45.0)
           (-30.0 30.0)
           (-30.0 30.0)
  end
  begin
     id 13 
     name thorax
     direction 0.0292928 0.998059 0.0549487   
     length 2.09281   
     axis 0 0 0   XYZ
    dof rx ry rz
    limits (-20.0 45.0)
           (-30.0 30.0)
           (-30.0 30.0)
  end
  begin
     id 14 
     name lowerneck
     direction 0.0356368 0.980775 0.191858   
     length 1.84767   
     axis 0 0 0   XYZ
    dof rx ry rz
    limits (-20.0 45.0)
           (-30.0 30.0)
           (-30.0 30.0)
  end
  begin
     id 15 
     name upperneck
     direction -0.0227605 0.98931 -0.14404   
     length 1.89582   
     axis 0 0 0   XYZ
    dof rx ry rz
    limits (-20.0 45.0)
           (-30.0 30.0)
           (-30.0 30.0)
  end
  begin
     id 16
     name head
     direction -0.00932985 0.997511 -0.0698904  
     length 1.90213  
     axis 0 0 0   XYZ
    dof rx ry rz
    limits (-20.0 45.0)
           (-30.0 30.0)
           (-30.0 30.0)
  end
  begin
     id 17 
     name lclavicle
     direction 0.873442 0.479511 0.0846686  
     length 3.41193  
     axis 0 0 0   XYZ
    dof ry rz
    limits (-20.0 10.0)
           (0.0 20.0)
  end
  begin
     id 18 
     name lhumerus
     direction 1 -4.4897e-011 -5.62117e-018   
     length 5.59864   
     axis 180 -30 -90   XYZ
    dof rx ry rz
    limits (-60.0 90.0)
           (-90.0 90.0)
           (-90.0 90.0)
  end
  begin
     id 19
     name lradius
     direction 1 -4.48966e-011 -6.26295e-027   
     length 3.59542   
     axis 180 -30 -90   XYZ
    dof rx
    limits (-10.0 170.0)
  end
  begin
     id 20
     name lwrist
     direction 1 -4.48947e-011 -1.74096e-026   
     length 1.79771   
     axis 1.04567e-014 90 90   XYZ
    dof ry
    limits (-180.0 0.0)
 end
  begin
     id 21 
     name lhand
     direction 1 -4.49085e-011 -3.48469e-026   
     length 0.572014   
     axis 2.22196e-014 90 90   XYZ
    dof rx rz
    limits (-90.0 90.0)
           (-45.0 45.0)
  end
  begin
     id 22 
     name lfingers
     direction 1 -4.48884e-011 -6.96135e-026   
     length 0.461173   
     axis 4.44383e-014 90 90   XYZ
    dof rx
    limits (0.0 90.0)
  end
  begin
     id 23
     name lthumb
     direction 0.707107 -6.34976e-011 0.707107   
     length 0.662154   
     axis -90 45 -5.4397e-014   XYZ
    dof rx rz
    limits (-45.0 45.0)
           (-45.0 45.0)
  end
  begin
     id 24 
     name rclavicle
     direction -0.890242 0.443271 0.104786   
     length 3.46753  
     axis 0 0 0   XYZ 
    dof ry rz
    limits (-10.0 20.0)
           (-20.0 0.0)
  end
  begin
     id 25 
     name rhumerus
     direction -1 -4.48963e-011 -5.41723e-018  
     length 5.8094   
     axis 180 30 90   XYZ
    dof rx ry rz
    limits (-90.0 60.0)
           (-90.0 90.0)
           (-90.0 90.0)
  end
  begin
     id 26 
     name rradius
     direction -1 -4.48958e-011 -6.51059e-027   
     length 3.66953   
     axis 180 30 90   XYZ
    dof rx
    limits (-10.0 170.0)
  end
  begin
     id 27 
     name rwrist
     direction -1 -4.48975e-011 -1.74124e-026   
     length 1.83476   
     axis 1.04567e-014 -90 -90   XYZ
    dof ry
    limits (-180.0 0.0)
  end
  begin
     id 28
     name rhand
     direction -1 -4.49013e-011 -3.48326e-026   
     length 0.57843   
     axis 2.22196e-014 -90 -90   XYZ
    dof rx rz
    limits (-90.0 90.0)
           (-45.0 45.0)
  end
  begin
     id 29
     name rfingers
     direction -1 -4.49023e-011 -6.9669e-026   
     length 0.466345   
     axis 4.44383e-014 -90 -90   XYZ
    dof rx
    limits (0.0 90.0)
  end
  begin
     id 30
     name rthumb
     direction -0.707107 -6.34926e-011 0.707107   
     length 0.669581   
     axis -90 -45 5.4397e-014   XYZ
    dof rx rz
    limits (-45.0 45.0)
           (-45.0 45.0)
  end
:hierarchy
  begin
    root lhipjoint rhipjoint lowerback
    lhipjoint lfemur
    lfemur ltibia
    ltibia lfoot
    lfoot ltoes
    rhipjoint rfemur
    rfemur rtibia
    rtibia rfoot
    rfoot rtoes
    lowerback upperback
    upperback thorax
    thorax lowerneck lclavicle rclavicle
    lowerneck upperneck
    upperneck head
    lclavicle lhumerus
    lhumerus lradius
    lradius lwrist
    lwrist lhand lthumb
    lhand lfingers
    rclavicle rhumerus
    rhumerus rradius
    rradius rwrist
    rwrist rhand rthumb
    rhand rfingers
  end

#!OML:ASF H:\SkateBoarding\Project 1\Capture day 1\Session 1\Skater.ASF
:FULLY-SPECIFIED
:DEGREES
368
root -2.98135 18.3405 38.3772 4.90441 59.2608 9.53585
lowerback 7.92601 -3.44064 -8.90909
upperback -0.270028 -5.41109 -0.288706
thorax -3.93518 -2.49647 5.25229
lowerneck -11.1135 1.78904 6.21679
upperneck 44.2968 1.45684 1.99202
head 18.7429 2.36401 0.252483
rclavicle 4.64686e-014 2.40529e-014
rhumerus -77.2812 -32.9939 -32.2237
rradius 27.9343
rwrist -2.39205
rhand -36.7927 -19.562
rfingers 7.12502
rthumb -9.87463 -49.3105
lclavicle 4.64686e-014 2.40529e-014
lhumerus -19.8453 -27.3801 92.3393
lradius 46.1733
lwrist 28.1621
lhand -22.8147 8.88694
lfingers 7.12502
lthumb 3.62205 38.8359
rfemur -40.9551 -14.0784 26.0101
rtibia 54.205
rfoot -28.7843 2.52731
rtoes -4.97734
lfemur 19.4343 4.78813 -31.525
ltibia 5.725e-014
lfoot -7.28521 -12.0915
ltoes -18.1101
369
root -3.08516 18.3021 38.3532 4.88761 59.4799 9.67458
lowerback 8.13751 -3.39061 -9.07274
upperback -0.204706 -5.38084 -0.398073
thorax -3.98593 -2.47701 5.23977
lowerneck -11.2362 1.8135 6.27579
upperneck 44.2458 1.37259 2.21017
head 18.7451 2.36862 0.332566
rclavicle -6.79397e-014 -5.2181e-015
rhumerus -77.7667 -33.929 -32.1816
rradius 27.6456
rwrist -1.93932
rhand -36.3847 -19.85
rfingers 7.12502
rthumb -9.48101 -49.6167
lclavicle -6.79397e-014 -5.2181e-015
lhumerus -19.7471 -27.2317 92.826
lradius 45.5274
lwrist 27.6992
lhand -22.7862 8.04301
lfingers 7.12502
lthumb 3.64961 37.9915
rfemur -41.5025 -14.2084 26.0033
rtibia 54.666
rfoot -28.8884 3.39326
rtoes -4.27925
lfemur 19.3905 4.60528 -31.5942
ltibia 2.22639e-014
lfoot -8.51638 -12.075
ltoes -19.7609
370
root -3.18464 18.2728 38.3292 4.83595 59.6456 9.78846
lowerback 8.34479 -3.32512 -9.22645
upperback -0.150547 -5.32956 -0.490447
thorax -4.04855 -2.4463 5.2377
lowerneck -11.3041 1.84053 6.3451
upperneck 44.1739 1.33072 2.34649
head 18.72 2.38052 0.377249
rclavicle 6.76868e-015 6.11263e-015
rhumerus -78.1149 -34.7929 -32.2995
rradius 27.3978
rwrist -1.56849
rhand -35.896 -20.1469
rfingers 7.12502
rthumb -9.00947 -49.9345
lclavicle 6.76868e-015 6.11263e-015
lhumerus -19.7001 -26.9099 93.3765
lradius 44.7379
lwrist 27.1542
lhand -22.7626 7.25543
lfingers 7.12502
lthumb 3.6724 37.2035
rfemur -41.9289 -14.2563 25.9375
rtibia 54.9984
rfoot -28.8572 4.23002
rtoes -3.75476
lfemur 19.3391 4.47734 -31.6518
ltibia -1.59028e-014
lfoot -9.47811 -11.9223
ltoes -21.2193
371
root -3.27964 18.252 38.3051 4.76476 59.7369 9.9079
lowerback 8.55367 -3.2381 -9.38331
upperback -0.105604 -5.25138 -0.57876
thorax -4.12541 -2.40111 5.23944
lowerneck -11.3039 1.86447 6.43795
upperneck 44.0871 1.3135 2.4159
head 18.6676 2.39706 0.388093
rclavicle -8.46135e-014 4.96962e-015
rhumerus -78.2918 -35.5783 -32.627
rradius 27.1741
rwrist -1.28664
rhand -35.348 -20.4282
rfingers 7.12502
rthumb -8.48058 -50.2379
lclavicle -8.46135e-014 4.96962e-015
lhumerus -19.712 -26.3979 93.9743
lradius 43.8122
lwrist 26.5172
lhand -22.7405 6.54801
lfingers 7.12502
lthumb 3.69366 36.4957
rfemur -42.2349 -14.2146 25.7967
rtibia 55.2276
rfoot -28.6988 5.037
rtoes -3.39408
lfemur 19.2961 4.42313 -31.7055
ltibia 3.18055e-015
lfoot -10.1522 -11.7044
ltoes -22.3533
372
root -3.36964 18.2381 38.281 4.68745 59.7423 10.0507
lowerback 8.75367 -3.12555 -9.53934
upperback -0.0655957 -5.13963 -0.673362
thorax -4.20856 -2.33882 5.23004
lowerneck -11.2533 1.88155 6.51997
upperneck 44.0049 1.30738 2.45915
head 18.6041 2.41326 0.389571
rclavicle 5.64715e-014 4.69629e-014
rhumerus -78.2797 -36.2948 -33.1818
rradius 26.9625
rwrist -1.0754
rhand -34.75 -20.7034
rfingers 7.12502
rthumb -7.90348 -50.5357
lclavicle 5.64715e-014 4.69629e-014
lhumerus -19.7795 -25.7023 94.5994
lradius 42.7567
lwrist 25.7824
lhand -22.7055 5.95023
lfingers 7.12502
lthumb 3.7275 35.8974
rfemur -42.4072 -14.0886 25.5774
rtibia 55.3156
rfoot -28.4138 5.80951
rtoes -3.16353
lfemur 19.2651 4.45377 -31.7663
ltibia -3.18055e-015
lfoot -10.5758 -11.4693
ltoes -23.2281
373
root -3.45491 18.2296 38.2567 4.62574 59.6419 10.2315
lowerback 8.93255 -2.98356 -9.70335
upperback -0.030209 -4.98871 -0.779342
thorax -4.29148 -2.25689 5.20721
lowerneck -11.1702 1.89063 6.58658
upperneck 43.9504 1.30217 2.49628
head 18.5488 2.42784 0.391588
rclavicle 3.27032e-014 2.38542e-015
rhumerus -78.0512 -36.9489 -33.9798
rradius 26.7435
rwrist -0.897212
rhand -34.1061 -20.9687
rfingers 7.12502
rthumb -7.28201 -50.8234
lclavicle 3.27032e-014 2.38542e-015
lhumerus -19.9039 -24.8226 95.2308
lradius 41.591
lwrist 24.9701
lhand -22.6734 5.48451
lfingers 7.12502
lthumb 3.75845 35.4311
rfemur -42.4948 -13.8583 25.2818
rtibia 55.3561
rfoot -28.0683 6.6039
rtoes -2.98842
lfemur 19.2388 4.5848 -31.8386
ltibia 3.81667e-014
lfoot -10.7941 -11.2648
ltoes -23.8457
374
root -3.53502 18.2548 38.2322 4.58175 59.4341 10.4451
lowerback 9.07339 -2.81697 -9.86912
upperback 0.00635591 -4.80195 -0.896917
thorax -4.35856 -2.15821 5.16586
lowerneck -11.0888 1.89713 6.62159
upperneck 43.9462 1.30216 2.54103
head 18.5251 2.44232 0.405957
rclavicle -7.43059e-014 -9.83984e-015
rhumerus -77.5663 -37.5412 -35.0505
rradius 26.5046
rwrist -0.714345
rhand -33.4284 -21.2066
rfingers 7.12502
rthumb -6.62779 -51.0829
lclavicle -7.43059e-014 -9.83984e-015
lhumerus -20.0753 -23.7417 95.8394
lradius 40.3249
lwrist 24.0695
lhand -22.5993 5.1424
lfingers 7.12502
lthumb 3.83004 35.0877
rfemur -42.399 -13.547 24.899
rtibia 55.3345
rfoot -27.7166 7.50905
rtoes -2.82357
lfemur 17.347 4.91755 -32.2824
ltibia 3.55314
lfoot -12.4657 -11.804
ltoes -24.1738
